<?xml version="1.0" encoding="UTF-8" standalone="no"?>
<!-- Created with Inkscape (http://www.inkscape.org/) -->

<svg
   width="1620.3909"
   height="512"
   viewBox="0 0 1620.3909 512"
   version="1.1"
   id="svg5"
   sodipodi:docname="s2credit_logo.svg"
   inkscape:version="1.1.1 (3bf5ae0d25, 2021-09-20)"
   xmlns:inkscape="http://www.inkscape.org/namespaces/inkscape"
   xmlns:sodipodi="http://sodipodi.sourceforge.net/DTD/sodipodi-0.dtd"
   xmlns="http://www.w3.org/2000/svg"
   xmlns:svg="http://www.w3.org/2000/svg">
  <sodipodi:namedview
     id="namedview7"
     pagecolor="#ffffff"
     bordercolor="#999999"
     borderopacity="1"
     inkscape:pageshadow="0"
     inkscape:pageopacity="0"
     inkscape:pagecheckerboard="false"
     inkscape:document-units="px"
     showgrid="false"
     inkscape:snap-to-guides="true"
     showguides="true"
     inkscape:guide-bbox="true"
     inkscape:lockguides="false"
     inkscape:zoom="0.22627417"
     inkscape:cx="-636.3961"
     inkscape:cy="384.48931"
     inkscape:window-width="1920"
     inkscape:window-height="1011"
     inkscape:window-x="0"
     inkscape:window-y="32"
     inkscape:window-maximized="1"
     inkscape:current-layer="g48467"
     width="512px"
     inkscape:snap-page="true"
     lock-margins="true"
     fit-margin-top="0"
     fit-margin-left="0"
     fit-margin-right="0"
     fit-margin-bottom="0">
    <inkscape:grid
       type="xygrid"
       id="grid132"
       originx="271.14106"
       originy="87.383578" />
  </sodipodi:namedview>
  <defs
     id="defs2" />
  <g
     inkscape:label="Capa 1"
     inkscape:groupmode="layer"
     id="layer1"
     transform="translate(271.5495,87.840157)">
    <text
       xml:space="preserve"
       style="font-size:18.6667px;line-height:1.25;font-family:sans-serif"
       x="-92.092903"
       y="38.058212"
       id="text46865"><tspan
         sodipodi:role="line"
         id="tspan46863"
         x="-92.092903"
         y="38.058212" /></text>
    <g
       id="g48467"
       transform="matrix(13.243547,0,0,13.243547,1580.8115,0.05286205)">
      <g
         id="g2044"
         transform="matrix(1.3091256,0,0,1.3091256,16.35401,-6.676575)">
        <path
           style="fill:#00548c;fill-opacity:1;stroke:none;stroke-width:0.2;stroke-linecap:butt;stroke-linejoin:miter;stroke-miterlimit:4;stroke-dasharray:none;stroke-opacity:1"
           d="M -101.63261,5.5471835 V 2.59754 l -12.95683,0.054022 c -2.67895,0 -4.74438,2.1280245 -4.74438,4.9435442 0,3.2737588 2.08834,5.1033948 5.2953,5.1033948 l 6.88586,-0.02031 c 1.72686,0.0234 3.30554,0.987921 3.25845,2.592306 0,1.571738 -1.41295,2.736116 -2.82479,2.736116 h -12.61482 v 2.875523 h 13.63513 c 2.05618,5e-6 4.70041,-2.777861 4.70041,-4.700412 0,-4.490233 -2.28145,-6.4477761 -6.44778,-6.4477761 h -7.04321 c -1.15194,-0.033221 -1.99599,-0.8381789 -2.01623,-2.0162338 -0.006,-1.1425868 1.04239,-2.1370376 2.13027,-2.1302675 z"
           id="path247"
           sodipodi:nodetypes="ccccccccccccccccc" />
        <path
           style="fill:#0082c9;fill-opacity:1;stroke:none;stroke-width:0.2;stroke-linecap:butt;stroke-linejoin:miter;stroke-miterlimit:4;stroke-dasharray:none;stroke-opacity:1"
           d="M -99.348072,5.5471835 V 2.59754 l 12.956856,0.054022 c 2.67895,0 4.744376,2.1280245 4.744376,4.9435442 0,3.2737588 -2.088336,5.1033948 -5.295296,5.1033948 l -6.88586,-0.02031 c -1.72687,0.0234 -3.30555,0.987921 -3.25846,2.592306 0,1.571738 1.41295,2.736116 2.8248,2.736116 h 12.614816 v 2.875523 h -13.635126 c -2.05619,5e-6 -4.70046,-2.777861 -4.70046,-4.700412 0,-4.490233 2.28149,-6.4477761 6.44783,-6.4477761 h 7.04321 c 1.15194,-0.033221 1.99599,-0.8381789 2.01623,-2.0162338 0.006,-1.1425868 -1.04239,-2.1370376 -2.13027,-2.1302675 z"
           id="path247-3"
           sodipodi:nodetypes="ccccccccccccccccc" />
        <rect
           style="opacity:1;fill:#0082c9;fill-opacity:1;stroke:none;stroke-width:0.201296;stroke-miterlimit:4;stroke-dasharray:none"
           id="rect36611"
           width="51.926945"
           height="2.8859661"
           x="-80.841415"
           y="17.99618" />
        <text
           xml:space="preserve"
           style="font-size:8.11572px;line-height:1.25;font-family:sans-serif;fill:#0082c9;fill-opacity:1;stroke-width:1.01446"
           x="-98.466881"
           y="28.415052"
           id="text67757"
           transform="scale(1.0144645,0.98574174)"><tspan
             sodipodi:role="line"
             id="tspan67755"
             x="-98.466881"
             y="28.415052"
             style="font-style:normal;font-variant:normal;font-weight:normal;font-stretch:normal;font-size:8.11572px;font-family:'Tw Cen MT Std';-inkscape-font-specification:'Tw Cen MT Std';fill:#0082c9;fill-opacity:1;stroke-width:1.01446">fácil, rápido y seguro...</tspan></text>
        <text
           xml:space="preserve"
           style="font-size:2.92256px;line-height:1.25;font-family:sans-serif;fill:#0082c9;fill-opacity:1;stroke-width:0.156565"
           x="-29.11858"
           y="2.1619828"
           id="text16076"
           transform="scale(1.0308723,0.97005225)"><tspan
             sodipodi:role="line"
             id="tspan16074"
             x="-29.11858"
             y="2.1619828"
             style="fill:#0082c9;fill-opacity:1;stroke-width:0.156565">TM</tspan></text>
        <path
           d="m -71.722271,8.513318 c -0.373334,-0.560001 -1.048528,-0.9451409 -1.58364,-1.2438081 -0.465006,-0.2318287 -1.492218,-0.2651159 -1.792003,-0.2677937 -0.183945,0.00283 -0.896002,0.068444 -1.344003,0.2426671 -0.435556,0.1742225 -0.827557,0.4231119 -1.176002,0.746668 -0.348445,0.3235561 -0.634667,0.7155568 -0.858668,1.1760021 -0.211556,0.4480008 -0.317334,0.9520016 -0.317334,1.5120026 0,0.510223 0.09333,0.989335 0.280001,1.437336 0.199111,0.448001 0.394154,0.906293 0.71771,1.242293 0.336,0.336001 0.667913,0.736139 1.115914,0.935251 0.448001,0.186667 1.053492,0.437221 1.563715,0.437221 0.672001,0 1.275558,-0.02552 1.81067,-0.336626 0.535112,-0.311111 1.137793,-0.614085 1.498683,-1.174087 l 1.314643,0.838488 c 0,0 -0.442016,0.500407 -0.827795,0.861296 -0.738434,0.646625 -1.612546,1.01184 -2.497908,1.211421 -0.435556,0.09956 -0.924959,0.149333 -1.335626,0.149333 -0.734224,0 -1.431114,-0.2315 -2.090671,-0.517723 -0.659557,-0.286222 -1.238224,-0.716195 -1.736003,-1.201529 -0.485334,-0.485334 -0.73853,-1.05778 -1.024752,-1.717337 -0.286223,-0.659557 -0.407237,-1.362669 -0.407237,-2.109337 0,-0.7591123 0.136889,-1.4684469 0.410667,-2.1280036 0.286222,-0.6720012 0.517321,-1.0580174 1.002656,-1.555796 0.497779,-0.4977787 1.076446,-0.9781678 1.736003,-1.2643906 0.672001,-0.2986672 1.387557,-0.4921949 2.14667,-0.4921949 0.933335,0 1.851434,0.081765 2.710102,0.5546551 0.871113,0.4728897 1.545906,0.948809 2.068574,1.8696995 z"
           style="font-weight:300;font-size:18.6667px;line-height:1.25;font-family:Vilane;-inkscape-font-specification:'Vilane Light';opacity:1;fill:#ff7f30;fill-opacity:1"
           id="path9477"
           sodipodi:nodetypes="ccccscscccssccccsscsscccsccc" />
        <path
           d="m -67.935248,5.4861921 0.01867,0.9448754 0.360014,-0.2434088 c 0.410667,-0.2862228 0.726085,-0.4699949 1.21142,-0.606884 0.497779,-0.1493336 0.820513,-0.2637592 1.545905,-0.2415132 0.881542,0.033528 1.242079,0.1531713 1.825223,0.3994499 0.875631,0.4480768 1.84405,1.5667261 1.84405,1.5667261 l -1.251629,0.7777192 c -1.004057,-0.8695907 -1.542925,-1.1676946 -2.772311,-1.1126903 -0.385524,-0.014003 -0.746668,0.105917 -1.082669,0.2552504 -0.336,0.1493336 -0.634667,0.3484451 -0.896001,0.5973344 -0.248889,0.2488893 -0.448001,0.5475565 -0.597335,0.8960016 -0.136889,0.3360006 -0.205333,0.6968901 -0.205333,1.0826686 v 6.3466776 h -1.75467 V 5.4861921 Z"
           style="font-weight:300;font-size:18.6667px;line-height:1.25;font-family:Vilane;-inkscape-font-specification:'Vilane Light';opacity:1;fill:#ff7f30;fill-opacity:1"
           id="path9479"
           sodipodi:nodetypes="cccccccccsccscccc" />
        <path
           id="path15617"
           style="font-weight:300;font-size:18.6667px;line-height:1.25;font-family:Vilane;-inkscape-font-specification:'Vilane Light';opacity:1;fill:#ff7f30;fill-opacity:1;stroke-width:1.00965"
           d="m -55.832031,5.3183594 c -0.759113,0 -1.474484,0.1213208 -2.146485,0.4257812 -0.659557,0.2917746 -1.236596,0.6205051 -1.734375,1.140625 -0.485334,0.507434 -0.87198,1.1040266 -1.158203,1.7890625 -0.273779,0.6850359 -0.410156,1.4068179 -0.410156,2.1679689 0,0.748466 0.143465,1.458509 0.429688,2.130859 0.286223,0.659664 0.670915,1.244519 1.15625,1.751953 0.497778,0.507434 1.076771,0.907445 1.736328,1.199219 0.659557,0.291775 1.35562,0.4375 2.089843,0.4375 0.908447,0 1.798809,-0.228856 2.669922,-0.685547 0.871113,-0.469376 1.34446,-0.979231 1.791016,-1.408203 l -1.203125,-0.914062 c -0.286028,0.43004 -0.863469,0.797338 -1.408203,1.097656 -0.482047,0.26576 -1.140499,0.320312 -1.8125,0.320312 -0.385779,0 -0.824433,-0.06944 -1.222657,-0.208984 -0.385778,-0.139545 -0.848318,-0.523627 -1.171874,-0.777344 -0.323556,-0.266403 -0.634649,-0.609639 -0.871094,-0.964844 -0.236445,-0.367888 -0.37505,-0.772791 -0.47461,-1.216796 -0.172323,-0.813188 -0.101392,-1.523149 0.218253,-2.175054 0.273778,-0.761151 0.817001,-1.3135493 1.451669,-1.7448682 0.634668,-0.4440048 1.323645,-0.6660157 2.070313,-0.6660157 0.423112,0 0.816845,-0.014745 1.177734,0.1121133 0.373334,0.1268585 0.874874,0.3048579 1.173541,0.5332032 0.298667,0.2156595 0.797138,0.7971974 1.008693,1.1016578 0.211556,0.2917745 0.423655,0.8338279 0.5481,1.16366 l 0.05469,0.1718746 -6.041124,0.01242 0.02794,1.339023 7.62465,-0.01989 c 0.01247,-0.07612 0.01758,-0.182721 0.01758,-0.322266 0.01247,-0.139545 0.01953,-0.248109 0.01953,-0.324219 0,-0.761151 -0.22159,-1.5874153 -0.507813,-2.2597654 -0.286223,-0.6850359 -0.740502,-1.1722535 -1.238281,-1.6796875 -0.485335,-0.507434 -1.064327,-0.844944 -1.736328,-1.1367187 -0.659557,-0.2917748 -1.369793,-0.390625 -2.128906,-0.390625 z"
           sodipodi:nodetypes="scccsccsscccssccccccscccccccccscccss" />
        <path
           d="m -39.423124,16.148399 -1.550313,0.01657 -3.298789,0.01827 c -2.289591,-0.219223 -4.842474,-2.214089 -4.849103,-5.242848 0,-0.759113 0.12645,-1.4684472 0.379351,-2.1280039 0.491539,-1.3718376 1.949159,-2.6520119 2.557369,-2.8681719 1.073851,-0.5478179 4.853772,-0.457802 5.158075,-0.4623588 l 0.03652,-2.8863135 h 1.58338 z m -4.617083,-1.589342 1.375652,0.009 1.636677,0.02834 -0.0026,-7.6119139 c -1.05514,-0.00316 -2.378978,-0.025477 -3.262662,0.04798 -2.088403,0.4073553 -3.092492,1.6453576 -3.206025,3.8892889 0.233044,2.270471 1.878043,3.578315 3.458958,3.637335 z"
           style="font-weight:300;font-size:18.6667px;line-height:1.25;font-family:Vilane;-inkscape-font-specification:'Vilane Light';opacity:1;fill:#ff7f30;fill-opacity:1;stroke-width:0.93999"
           id="path9483"
           sodipodi:nodetypes="cccccccccccccccccc" />
        <path
           d="M -36.410084,5.5166723 V 16.148399 h -1.792003 V 5.5166723 Z"
           style="font-weight:300;font-size:18.6667px;line-height:1.25;font-family:Vilane;-inkscape-font-specification:'Vilane Light';opacity:1;fill:#ff7f30;fill-opacity:1"
           id="path9485"
           sodipodi:nodetypes="ccccc" />
        <path
           d="m -31.837644,16.148399 c -0.485334,0 -0.945779,-0.09333 -1.381336,-0.28 -0.423111,-0.199111 -0.796445,-0.460445 -1.120002,-0.784002 -0.311111,-0.336 -0.560001,-0.721778 -0.746668,-1.157335 -0.186667,-0.435557 -0.28,-0.896002 -0.28,-1.381336 V 6.9457161 5.1537128 2.6749164 h 1.570211 v 2.7912964 h 3.680963 v 1.4795033 h -3.696588 v 5.6560099 c 0.05828,1.20303 1.117184,1.985314 1.97342,2.086126 h 2.048258 v 1.460547 z"
           style="font-weight:300;font-size:18.6667px;line-height:1.25;font-family:Vilane;-inkscape-font-specification:'Vilane Light';opacity:1;fill:#ff7f30;fill-opacity:1"
           id="path9487"
           sodipodi:nodetypes="sccssccccccccccccs" />
        <circle
           style="opacity:1;fill:#ff7f30;fill-opacity:1;stroke-width:0.213379"
           id="path22095"
           cx="-37.352085"
           cy="3.5393972"
           r="0.77826405" />
      </g>
    </g>
  </g>
</svg>
